<?xml version="1.0"?>
<svg xmlns="http://www.w3.org/2000/svg" viewBox="0.0000 0.0000 106.2000 149.0625" width="106.2000mm" height="149.0625mm">
<rect x="5.0000" y="5.0000" width="96.2000" height="139.0625" style="fill:none;stroke-width:0.050000mm;stroke:black"/>
<circle cx="9.0000" cy="9.0000" r="1.2000" style="fill:none;stroke-width:0.050000mm;stroke:black"/>
<circle cx="97.2000" cy="9.0000" r="1.2000" style="fill:none;stroke-width:0.050000mm;stroke:black"/>
<circle cx="9.0000" cy="74.5313" r="1.2000" style="fill:none;stroke-width:0.050000mm;stroke:black"/>
<circle cx="97.2000" cy="74.5313" r="1.2000" style="fill:none;stroke-width:0.050000mm;stroke:black"/>
<circle cx="9.0000" cy="140.0625" r="1.2000" style="fill:none;stroke-width:0.050000mm;stroke:black"/>
<circle cx="97.2000" cy="140.0625" r="1.2000" style="fill:none;stroke-width:0.050000mm;stroke:black"/>
<polygon points="55.625,117.537 55.625,131.537 69.625,131.537 69.625,117.537" style="fill:none;stroke-width:0.050000mm;stroke:black"/>
<polygon points="36.575,117.537 36.575,131.537 50.575,131.537 50.575,117.537" style="fill:none;stroke-width:0.050000mm;stroke:black"/>
<polygon points="17.525,117.537 17.525,131.537 31.525,131.537 31.525,117.537" style="fill:none;stroke-width:0.050000mm;stroke:black"/>
<polygon points="81.175,98.912 81.175,99.737 74.905,99.737 74.905,101.462 73.705,101.462 73.705,104.762 74.905,104.762 74.905,106.487 79.375,106.487 79.375,108.012 74.675,108.012 74.675,122.012 79.375,122.012 79.375,123.537 74.905,123.537 74.905,125.262 73.705,125.262 73.705,128.562 74.905,128.562 74.905,130.287 81.175,130.287 81.175,131.112 83.975,131.112 83.975,130.287 87.205,130.287 87.205,123.537 83.975,123.537 83.975,122.012 88.675,122.012 88.675,108.012 83.975,108.012 83.975,106.487 87.205,106.487 87.205,99.737 83.975,99.737 83.975,98.912" style="fill:none;stroke-width:0.050000mm;stroke:black"/>
<polygon points="55.625,98.487 55.625,112.487 69.625,112.487 69.625,98.487" style="fill:none;stroke-width:0.050000mm;stroke:black"/>
<polygon points="36.575,98.487 36.575,112.487 50.575,112.487 50.575,98.487" style="fill:none;stroke-width:0.050000mm;stroke:black"/>
<polygon points="17.525,98.487 17.525,112.487 31.525,112.487 31.525,98.487" style="fill:none;stroke-width:0.050000mm;stroke:black"/>
<polygon points="55.625,79.437 55.625,93.437 69.625,93.437 69.625,79.437" style="fill:none;stroke-width:0.050000mm;stroke:black"/>
<polygon points="36.575,79.437 36.575,93.437 50.575,93.437 50.575,79.437" style="fill:none;stroke-width:0.050000mm;stroke:black"/>
<polygon points="17.525,79.437 17.525,93.437 31.525,93.437 31.525,79.437" style="fill:none;stroke-width:0.050000mm;stroke:black"/>
<polygon points="81.175,60.812 81.175,61.637 74.905,61.637 74.905,63.362 73.705,63.362 73.705,66.662 74.905,66.662 74.905,68.387 79.375,68.387 79.375,69.912 74.675,69.912 74.675,83.912 79.375,83.912 79.375,85.437 74.905,85.437 74.905,87.162 73.705,87.162 73.705,90.462 74.905,90.462 74.905,92.187 81.175,92.187 81.175,93.012 83.975,93.012 83.975,92.187 87.205,92.187 87.205,85.437 83.975,85.437 83.975,83.912 88.675,83.912 88.675,69.912 83.975,69.912 83.975,68.387 87.205,68.387 87.205,61.637 83.975,61.637 83.975,60.812" style="fill:none;stroke-width:0.050000mm;stroke:black"/>
<polygon points="55.625,60.387 55.625,74.387 69.625,74.387 69.625,60.387" style="fill:none;stroke-width:0.050000mm;stroke:black"/>
<polygon points="36.575,60.387 36.575,74.387 50.575,74.387 50.575,60.387" style="fill:none;stroke-width:0.050000mm;stroke:black"/>
<polygon points="17.525,60.387 17.525,74.387 31.525,74.387 31.525,60.387" style="fill:none;stroke-width:0.050000mm;stroke:black"/>
<polygon points="74.675,41.337 74.675,55.337 88.675,55.337 88.675,41.337" style="fill:none;stroke-width:0.050000mm;stroke:black"/>
<polygon points="55.625,41.337 55.625,55.337 69.625,55.337 69.625,41.337" style="fill:none;stroke-width:0.050000mm;stroke:black"/>
<polygon points="36.575,41.337 36.575,55.337 50.575,55.337 50.575,41.337" style="fill:none;stroke-width:0.050000mm;stroke:black"/>
<polygon points="17.525,41.337 17.525,55.337 31.525,55.337 31.525,41.337" style="fill:none;stroke-width:0.050000mm;stroke:black"/>
</svg>