<?xml version="1.0"?>
<svg xmlns="http://www.w3.org/2000/svg" viewBox="0.0000 0.0000 106.2000 149.0625" width="106.2000mm" height="149.0625mm">
<rect x="5.0000" y="5.0000" width="96.2000" height="139.0625" style="fill:none;stroke-width:0.050000mm;stroke:black"/>
<circle cx="9.0000" cy="9.0000" r="1.2000" style="fill:none;stroke-width:0.050000mm;stroke:black"/>
<circle cx="97.2000" cy="9.0000" r="1.2000" style="fill:none;stroke-width:0.050000mm;stroke:black"/>
<circle cx="9.0000" cy="74.5313" r="1.2000" style="fill:none;stroke-width:0.050000mm;stroke:black"/>
<circle cx="97.2000" cy="74.5313" r="1.2000" style="fill:none;stroke-width:0.050000mm;stroke:black"/>
<circle cx="9.0000" cy="140.0625" r="1.2000" style="fill:none;stroke-width:0.050000mm;stroke:black"/>
<circle cx="97.2000" cy="140.0625" r="1.2000" style="fill:none;stroke-width:0.050000mm;stroke:black"/>
<polygon points="27.049,117.537 27.049,122.237 25.525,122.237 25.525,119.007 18.775,119.007 18.775,122.237 17.949,122.237 17.949,125.037 18.775,125.037 18.775,131.307 20.499,131.307 20.499,132.507 23.799,132.507 23.799,131.307 25.525,131.307 25.525,126.837 27.049,126.837 27.049,131.537 41.050,131.537 41.050,126.837 42.574,126.837 42.574,131.307 44.300,131.307 44.300,132.507 47.599,132.507 47.599,131.307 49.324,131.307 49.324,125.037 50.150,125.037 50.150,122.237 49.324,122.237 49.324,119.007 42.574,119.007 42.574,122.237 41.050,122.237 41.050,117.537" style="fill:none;stroke-width:0.050000mm;stroke:black"/>
<polygon points="55.625,117.537 55.625,131.537 69.625,131.537 69.625,117.537" style="fill:none;stroke-width:0.050000mm;stroke:black"/>
<polygon points="79.375,98.912 79.375,99.737 76.145,99.737 76.145,106.487 79.375,106.487 79.375,108.012 74.675,108.012 74.675,122.012 79.375,122.012 79.375,123.537 76.145,123.537 76.145,130.287 79.375,130.287 79.375,131.112 82.175,131.112 82.175,130.287 88.445,130.287 88.445,128.562 89.645,128.562 89.645,125.262 88.445,125.262 88.445,123.537 83.975,123.537 83.975,122.012 88.675,122.012 88.675,108.012 83.975,108.012 83.975,106.487 88.445,106.487 88.445,104.762 89.645,104.762 89.645,101.462 88.445,101.462 88.445,99.737 82.175,99.737 82.175,98.912" style="fill:none;stroke-width:0.050000mm;stroke:black"/>
<polygon points="55.625,98.487 55.625,112.487 69.625,112.487 69.625,98.487" style="fill:none;stroke-width:0.050000mm;stroke:black"/>
<polygon points="36.575,98.487 36.575,112.487 50.575,112.487 50.575,98.487" style="fill:none;stroke-width:0.050000mm;stroke:black"/>
<polygon points="17.525,98.487 17.525,112.487 31.525,112.487 31.525,98.487" style="fill:none;stroke-width:0.050000mm;stroke:black"/>
<polygon points="55.625,79.437 55.625,93.437 69.625,93.437 69.625,79.437" style="fill:none;stroke-width:0.050000mm;stroke:black"/>
<polygon points="36.575,79.437 36.575,93.437 50.575,93.437 50.575,79.437" style="fill:none;stroke-width:0.050000mm;stroke:black"/>
<polygon points="17.525,79.437 17.525,93.437 31.525,93.437 31.525,79.437" style="fill:none;stroke-width:0.050000mm;stroke:black"/>
<polygon points="79.375,60.812 79.375,61.637 76.145,61.637 76.145,68.387 79.375,68.387 79.375,69.912 74.675,69.912 74.675,83.912 79.375,83.912 79.375,85.437 76.145,85.437 76.145,92.187 79.375,92.187 79.375,93.012 82.175,93.012 82.175,92.187 88.445,92.187 88.445,90.462 89.645,90.462 89.645,87.162 88.445,87.162 88.445,85.437 83.975,85.437 83.975,83.912 88.675,83.912 88.675,69.912 83.975,69.912 83.975,68.387 88.445,68.387 88.445,66.662 89.645,66.662 89.645,63.362 88.445,63.362 88.445,61.637 82.175,61.637 82.175,60.812" style="fill:none;stroke-width:0.050000mm;stroke:black"/>
<polygon points="55.625,60.387 55.625,74.387 69.625,74.387 69.625,60.387" style="fill:none;stroke-width:0.050000mm;stroke:black"/>
<polygon points="36.575,60.387 36.575,74.387 50.575,74.387 50.575,60.387" style="fill:none;stroke-width:0.050000mm;stroke:black"/>
<polygon points="17.525,60.387 17.525,74.387 31.525,74.387 31.525,60.387" style="fill:none;stroke-width:0.050000mm;stroke:black"/>
<polygon points="74.675,41.337 74.675,55.337 88.675,55.337 88.675,41.337" style="fill:none;stroke-width:0.050000mm;stroke:black"/>
<polygon points="55.625,41.337 55.625,55.337 69.625,55.337 69.625,41.337" style="fill:none;stroke-width:0.050000mm;stroke:black"/>
<polygon points="36.575,41.337 36.575,55.337 50.575,55.337 50.575,41.337" style="fill:none;stroke-width:0.050000mm;stroke:black"/>
<polygon points="17.525,41.337 17.525,55.337 31.525,55.337 31.525,41.337" style="fill:none;stroke-width:0.050000mm;stroke:black"/>
</svg>